<svg width="61" height="29" viewBox="0 0 61 29" fill="none" xmlns="http://www.w3.org/2000/svg">
<rect opacity="0.12" width="61" height="29" rx="6" fill="#43D9A9"/>
<path d="M13.75 19.1162C14.3037 19.1162 14.6318 18.7812 14.6318 18.2002V15.8281L15.6572 14.7412L18.8564 18.6514C19.1299 18.9932 19.3691 19.123 19.7178 19.123C20.1963 19.123 20.5654 18.7539 20.5654 18.2754C20.5654 18.043 20.4629 17.7969 20.2236 17.5029L16.9629 13.5586L19.9297 10.4619C20.1348 10.2432 20.2168 10.0586 20.2168 9.81934C20.2168 9.36816 19.8682 9.0127 19.3965 9.0127C19.1094 9.0127 18.8975 9.12207 18.6582 9.38184L14.6934 13.6611H14.6318V9.93555C14.6318 9.35449 14.3037 9.01953 13.75 9.01953C13.2031 9.01953 12.8682 9.35449 12.8682 9.93555V18.2002C12.8682 18.7812 13.2031 19.1162 13.75 19.1162ZM22.7734 19.1162C23.3271 19.1162 23.6553 18.7812 23.6553 18.2002V9.93555C23.6553 9.35449 23.3271 9.01953 22.7734 9.01953C22.2266 9.01953 21.8916 9.35449 21.8916 9.93555V18.2002C21.8916 18.7812 22.2266 19.1162 22.7734 19.1162ZM26.2734 19.1367C26.8203 19.1367 27.1553 18.7949 27.1553 18.2207V15.2881H29.1309L30.8877 18.501C31.1611 18.9863 31.3662 19.1367 31.7832 19.1367C32.2891 19.1367 32.6719 18.7949 32.6719 18.3301C32.6719 18.125 32.6309 17.9746 32.4805 17.7217L30.9219 14.9873C32.0635 14.543 32.7197 13.4902 32.7197 12.2051C32.7197 10.3184 31.4414 9.13574 29.3086 9.13574H26.2734C25.7266 9.13574 25.3916 9.47754 25.3916 10.0518V18.2207C25.3916 18.7949 25.7266 19.1367 26.2734 19.1367ZM27.1553 13.9346V10.5645H29.1104C30.2246 10.5645 30.915 11.207 30.915 12.2461C30.915 13.3125 30.2656 13.9346 29.1445 13.9346H27.1553ZM35.0234 19.1162C35.5771 19.1162 35.9053 18.7812 35.9053 18.2002V9.93555C35.9053 9.35449 35.5771 9.01953 35.0234 9.01953C34.4766 9.01953 34.1416 9.35449 34.1416 9.93555V18.2002C34.1416 18.7812 34.4766 19.1162 35.0234 19.1162ZM38.4346 19.1162C38.9336 19.1162 39.2344 18.8086 39.2344 18.2891V12H39.2822L41.9004 18.3506C42.0645 18.7539 42.3311 18.9385 42.7344 18.9385C43.1445 18.9385 43.3975 18.7539 43.5684 18.3438L46.1865 12H46.2344V18.2891C46.2344 18.8086 46.5283 19.1162 47.0273 19.1162C47.5264 19.1162 47.8203 18.8086 47.8203 18.2891V10.1406C47.8203 9.43652 47.4033 9.01953 46.6992 9.01953C46.084 9.01953 45.7285 9.28613 45.4688 9.93555L42.7617 16.5801H42.707L39.9932 9.93555C39.7334 9.2793 39.3848 9.01953 38.7764 9.01953C38.0723 9.01953 37.6416 9.44336 37.6416 10.1406V18.2891C37.6416 18.8086 37.9355 19.1162 38.4346 19.1162Z" fill="#43D9A9"/>
</svg>
