<svg width="74" height="29" viewBox="0 0 74 29" fill="none" xmlns="http://www.w3.org/2000/svg">
<rect opacity="0.12" width="74" height="29" rx="6" fill="#EEA36C"/>
<path d="M17.1406 19.1641C18.9863 19.1641 20.3877 18.3574 21.0166 17.0176C21.126 16.7852 21.1807 16.5801 21.1807 16.3545C21.1807 15.8896 20.8457 15.5684 20.3604 15.5684C19.9775 15.5684 19.752 15.7324 19.5742 16.1357C19.123 17.1748 18.2549 17.667 17.127 17.667C15.418 17.667 14.3379 16.2793 14.3379 14.0645C14.3379 11.8633 15.4248 10.4688 17.1201 10.4688C18.1934 10.4688 19.0889 11.0225 19.5469 12.082C19.7383 12.5127 20.0049 12.7041 20.4082 12.7041C20.8799 12.7041 21.1875 12.4033 21.1875 11.9316C21.1875 11.7266 21.1328 11.4941 21.0234 11.2686C20.374 9.82617 18.9316 8.97168 17.1064 8.97168C14.3174 8.97168 12.5332 10.9199 12.5332 14.0645C12.5332 17.2295 14.29 19.1641 17.1406 19.1641ZM23.5938 19.1162C24.1475 19.1162 24.4756 18.7812 24.4756 18.2002V14.7207H29.2744V18.2002C29.2744 18.7812 29.6025 19.1162 30.1494 19.1162C30.7031 19.1162 31.0312 18.7812 31.0312 18.2002V9.93555C31.0312 9.35449 30.7031 9.01953 30.1494 9.01953C29.6025 9.01953 29.2744 9.35449 29.2744 9.93555V13.2373H24.4756V9.93555C24.4756 9.35449 24.1475 9.01953 23.5938 9.01953C23.0469 9.01953 22.7119 9.35449 22.7119 9.93555V18.2002C22.7119 18.7812 23.0469 19.1162 23.5938 19.1162ZM33.6562 19.1162C34.21 19.1162 34.5381 18.7812 34.5381 18.2002V9.93555C34.5381 9.35449 34.21 9.01953 33.6562 9.01953C33.1094 9.01953 32.7744 9.35449 32.7744 9.93555V18.2002C32.7744 18.7812 33.1094 19.1162 33.6562 19.1162ZM40.6221 19.1641C41.251 19.1641 41.832 19.0752 42.3584 18.8838L43.0488 19.8545C43.2266 20.1211 43.418 20.2305 43.7051 20.2305C44.1357 20.2305 44.4434 19.9434 44.4434 19.54C44.4434 19.3555 44.3955 19.2188 44.2725 19.0342L43.6436 18.1455C44.71 17.2979 45.2979 15.8691 45.2979 14.0713C45.2979 10.9404 43.4932 8.97168 40.6221 8.97168C37.7441 8.97168 35.9395 10.9404 35.9395 14.0713C35.9395 17.2227 37.7441 19.1641 40.6221 19.1641ZM40.6221 17.6738C38.8584 17.6738 37.7441 16.2725 37.7441 14.0713C37.7441 11.8701 38.8584 10.4619 40.6221 10.4619C42.3789 10.4619 43.5 11.8701 43.5 14.0713C43.5 15.2061 43.165 16.1084 42.584 16.6963L42.0234 15.9238C41.8594 15.6982 41.6885 15.6094 41.4287 15.6094C41.0254 15.6094 40.7314 15.8896 40.7314 16.2861C40.7314 16.4434 40.7793 16.5938 40.9023 16.7783L41.4492 17.5508C41.1963 17.626 40.916 17.6738 40.6221 17.6738ZM47.5879 19.1162C48.1416 19.1162 48.4697 18.7812 48.4697 18.2002V9.93555C48.4697 9.35449 48.1416 9.01953 47.5879 9.01953C47.041 9.01953 46.7061 9.35449 46.7061 9.93555V18.2002C46.7061 18.7812 47.041 19.1162 47.5879 19.1162ZM50.999 19.1162C51.498 19.1162 51.7988 18.8086 51.7988 18.2891V12H51.8467L54.4648 18.3506C54.6289 18.7539 54.8955 18.9385 55.2988 18.9385C55.709 18.9385 55.9619 18.7539 56.1328 18.3438L58.751 12H58.7988V18.2891C58.7988 18.8086 59.0928 19.1162 59.5918 19.1162C60.0908 19.1162 60.3848 18.8086 60.3848 18.2891V10.1406C60.3848 9.43652 59.9678 9.01953 59.2637 9.01953C58.6484 9.01953 58.293 9.28613 58.0332 9.93555L55.3262 16.5801H55.2715L52.5576 9.93555C52.2979 9.2793 51.9492 9.01953 51.3408 9.01953C50.6367 9.01953 50.2061 9.44336 50.2061 10.1406V18.2891C50.2061 18.8086 50.5 19.1162 50.999 19.1162Z" fill="#EEA36C"/>
</svg>
