<svg width="24" height="24" viewBox="0 0 24 24" fill="none" xmlns="http://www.w3.org/2000/svg">
<path d="M14.2617 16H9.26172" stroke="white" stroke-width="2" stroke-miterlimit="10" stroke-linecap="round" stroke-linejoin="round"/>
<path d="M12.66 2.51814L12.63 2.58814L9.72996 9.31814H6.87996C6.19996 9.31814 5.54996 9.45814 4.95996 9.70814L6.70996 5.52814L6.74996 5.42814L6.81996 5.26814C6.83996 5.20814 6.85996 5.14814 6.88996 5.09814C8.19996 2.06814 9.67996 1.37814 12.66 2.51814Z" stroke="white" stroke-width="2" stroke-linecap="round" stroke-linejoin="round"/>
<path d="M18.05 9.51953C17.6 9.37953 17.12 9.31953 16.64 9.31953H9.72998L12.63 2.58953L12.66 2.51953C12.81 2.56953 12.95 2.63953 13.1 2.69953L15.31 3.62953C16.54 4.13953 17.4 4.66953 17.92 5.30953C18.02 5.42953 18.1 5.53953 18.17 5.66953C18.26 5.80953 18.33 5.94953 18.37 6.09953C18.41 6.18953 18.44 6.27953 18.46 6.35953C18.73 7.19953 18.57 8.22953 18.05 9.51953Z" stroke="white" stroke-width="2" stroke-linecap="round" stroke-linejoin="round"/>
<path d="M21.5217 14.2003V16.1503C21.5217 16.3503 21.5117 16.5503 21.5017 16.7503C21.3117 20.2403 19.3617 22.0003 15.6617 22.0003H7.86172C7.62172 22.0003 7.38172 21.9803 7.15172 21.9503C3.97172 21.7403 2.27172 20.0403 2.06172 16.8603C2.03172 16.6303 2.01172 16.3903 2.01172 16.1503V14.2003C2.01172 12.1903 3.23172 10.4603 4.97172 9.71031C5.57172 9.46031 6.21172 9.32031 6.89172 9.32031H16.6517C17.1417 9.32031 17.6217 9.39031 18.0617 9.52031C20.0517 10.1303 21.5217 11.9903 21.5217 14.2003Z" stroke="white" stroke-width="2" stroke-linecap="round" stroke-linejoin="round"/>
<path d="M6.71 5.52734L4.96 9.70734C3.22 10.4573 2 12.1873 2 14.1973V11.2673C2 8.42734 4.02 6.05734 6.71 5.52734Z" stroke="white" stroke-width="2" stroke-linecap="round" stroke-linejoin="round"/>
<path d="M21.5186 11.2677V14.1977C21.5186 11.9977 20.0586 10.1277 18.0586 9.52766C18.5786 8.22766 18.7286 7.20766 18.4786 6.35766C18.4586 6.26766 18.4286 6.17766 18.3886 6.09766C20.2486 7.05766 21.5186 9.02766 21.5186 11.2677Z" stroke="white" stroke-width="2" stroke-linecap="round" stroke-linejoin="round"/>
</svg>
