<svg width="24" height="24" viewBox="0 0 24 24" fill="none" xmlns="http://www.w3.org/2000/svg">
<path d="M2 9V7C2 4 4 2 7 2H17C20 2 22 4 22 7V9" stroke="#858D90" stroke-width="2" stroke-miterlimit="10" stroke-linecap="round" stroke-linejoin="round"/>
<path d="M2 15V17C2 20 4 22 7 22H17C20 22 22 20 22 17V15" stroke="#858D90" stroke-width="2" stroke-miterlimit="10" stroke-linecap="round" stroke-linejoin="round"/>
<path d="M6.70001 9.25977L12 12.3298L17.26 9.27979" stroke="#858D90" stroke-width="2" stroke-linecap="round" stroke-linejoin="round"/>
<path d="M12 17.7703V12.3203" stroke="#858D90" stroke-width="2" stroke-linecap="round" stroke-linejoin="round"/>
<path d="M10.76 6.29055L7.55998 8.07058C6.83998 8.47058 6.23999 9.48057 6.23999 10.3106V13.7006C6.23999 14.5306 6.82998 15.5406 7.55998 15.9406L10.76 17.7205C11.44 18.1005 12.56 18.1005 13.25 17.7205L16.45 15.9406C17.17 15.5406 17.77 14.5306 17.77 13.7006V10.3106C17.77 9.48057 17.18 8.47058 16.45 8.07058L13.25 6.29055C12.56 5.90055 11.44 5.90055 10.76 6.29055Z" stroke="#858D90" stroke-width="2" stroke-linecap="round" stroke-linejoin="round"/>
</svg>
