<svg width="124" height="26" viewBox="0 0 124 26" fill="none" xmlns="http://www.w3.org/2000/svg">
<g clip-path="url(#clip0)">
<path d="M4.59222 0.148438H0.11908V4.65044C0.11908 7.15844 2.14005 9.19243 4.63197 9.19243H9.10511V4.69044C9.10511 2.18244 7.08415 0.148438 4.59222 0.148438Z" fill="#2782F7"/>
<path d="M21.1832 25.8487H25.6564V21.3467C25.6564 18.8387 23.6354 16.8047 21.1435 16.8047H16.6703V21.3067C16.6703 23.8147 18.6893 25.8487 21.1832 25.8487Z" fill="#2782F7"/>
<path d="M25.6563 4.65044V0.148438H21.1832C18.6912 0.148438 16.6703 2.18244 16.6703 4.69044V9.19244H21.1434C23.6354 9.19444 25.6563 7.16044 25.6563 4.65044Z" fill="#2782F7"/>
<path d="M0.11908 21.3506V25.8526H4.59222C7.08415 25.8526 9.10511 23.8186 9.10511 21.3106V16.8086H4.63197C2.14005 16.8066 0.11908 18.8406 0.11908 21.3506Z" fill="#2782F7"/>
<path d="M16.6704 9.19531H9.10516V16.8093H16.6704V9.19531Z" fill="#2782F7"/>
<path d="M80.4368 4.82584V2.83984H78.4556C77.3507 2.83984 76.4565 3.73784 76.4565 4.84384V6.82984H78.4377C79.5426 6.83184 80.4368 5.93384 80.4368 4.82584Z" fill="#2782F7"/>
<path d="M31.735 21.3142V4.36419C31.735 2.77819 33.0127 1.49219 34.5886 1.49219H45.5995C45.9135 1.49219 46.1679 1.74819 46.1679 2.06419V4.94219C46.1679 5.25819 45.9135 5.51419 45.5995 5.51419H36.1147C36.0273 5.51419 35.9558 5.58619 35.9558 5.67419V10.1842C35.9558 10.2722 36.0273 10.3442 36.1147 10.3442H43.3123C43.6263 10.3442 43.8806 10.6002 43.8806 10.9162V13.7942C43.8806 14.1102 43.6263 14.3662 43.3123 14.3662H36.1147C36.0273 14.3662 35.9558 14.4382 35.9558 14.5262V20.0082C35.9558 20.0962 36.0273 20.1682 36.1147 20.1682H45.9215C46.2354 20.1682 46.4898 20.4242 46.4898 20.7402V23.6182C46.4898 23.9342 46.2354 24.1902 45.9215 24.1902H34.5886C33.0127 24.1862 31.735 22.9002 31.735 21.3142Z" fill="#2782F7"/>
<path d="M49.2599 23.6208V8.54484C49.2599 8.22884 49.5142 7.97484 49.8262 7.97484H52.1632C52.4533 7.97484 52.6977 8.19484 52.7295 8.48484L52.8726 9.80485C52.8905 9.96285 52.6918 10.0468 52.5904 9.92284L52.4553 9.75684C52.3976 9.68684 52.4096 9.58284 52.4811 9.52684C53.0653 9.08084 53.7549 8.67284 54.5498 8.30684C55.4042 7.91284 56.3998 7.71484 57.5385 7.71484C58.3969 7.71484 59.158 7.84284 59.8178 8.09484C60.4775 8.34884 61.0439 8.71083 61.5168 9.18083C61.9123 9.57483 62.2441 10.0308 62.5124 10.5488C62.576 10.6708 62.4687 10.8128 62.3355 10.7828L61.9063 10.6828C61.801 10.6588 61.7493 10.5368 61.805 10.4448C62.3157 9.60684 63.033 8.95084 63.9591 8.47684C64.9526 7.96884 66.0774 7.71484 67.3333 7.71484C68.8157 7.71484 70.0239 8.02284 70.9579 8.63884C71.8919 9.25484 72.5794 10.1228 73.0186 11.2408C73.4598 12.3588 73.6784 13.6708 73.6784 15.1728V23.6228C73.6784 23.9348 73.428 24.1868 73.118 24.1868H70.2445C69.9345 24.1868 69.6841 23.9348 69.6841 23.6228V15.4648C69.6841 13.9528 69.4516 12.8328 68.9827 12.1088C68.5157 11.3848 67.7407 11.0228 66.6557 11.0228C66.1191 11.0228 65.6482 11.1168 65.2468 11.3068C64.8434 11.4968 64.5115 11.7708 64.2472 12.1328C63.9849 12.4948 63.7882 12.9328 63.659 13.4468C63.5298 13.9608 63.4662 14.5348 63.4662 15.1728V23.6228C63.4662 23.9348 63.2159 24.1868 62.9059 24.1868H60.0324C59.7224 24.1868 59.472 23.9348 59.472 23.6228V15.4648C59.472 14.4588 59.3667 13.6268 59.158 12.9688C58.9494 12.3088 58.6155 11.8208 58.1585 11.5008C57.7014 11.1828 57.1093 11.0228 56.378 11.0228C55.444 11.0228 54.6789 11.2408 54.0828 11.6788C53.743 11.9288 53.427 12.2268 53.1349 12.5768C53.0216 12.7128 52.807 12.5908 52.8646 12.4228L52.9441 12.1908C53.0017 12.0188 53.2541 12.0628 53.2541 12.2428V23.6228C53.2541 23.9348 53.0037 24.1868 52.6937 24.1868H49.8203C49.5103 24.1848 49.2599 23.9308 49.2599 23.6208Z" fill="#2782F7"/>
<path d="M76.4426 23.6166V9.1286C76.4426 8.8146 76.697 8.55859 77.009 8.55859H79.8705C80.1825 8.55859 80.4369 8.8146 80.4369 9.1286V23.6166C80.4369 23.9306 80.1825 24.1866 79.8705 24.1866H77.009C76.695 24.1866 76.4426 23.9306 76.4426 23.6166Z" fill="#2782F7"/>
<path d="M83.2048 23.6143V8.54634C83.2048 8.23034 83.4592 7.97634 83.7711 7.97634H86.4041C86.7042 7.97634 86.9526 8.21234 86.9705 8.51434L87.0162 9.33234C87.0241 9.46834 87.1851 9.53434 87.2825 9.43834C87.664 9.07034 88.1568 8.70034 88.7589 8.33234C89.5002 7.87834 90.3109 7.65234 91.1913 7.65234C91.231 7.65234 91.2707 7.65235 91.3105 7.65435C91.6344 7.66235 91.8848 7.94034 91.8609 8.26434L91.6582 11.0343C91.6344 11.3583 91.3462 11.5943 91.0263 11.5543C90.9885 11.5503 90.9508 11.5463 90.9111 11.5423C90.6805 11.5203 90.452 11.5103 90.2275 11.5103C89.5518 11.5103 88.9338 11.6663 88.3754 11.9803C87.8329 12.2863 87.4474 12.6563 87.2189 13.0943C87.207 13.1183 87.201 13.1463 87.201 13.1723V23.6143C87.201 23.9303 86.9466 24.1863 86.6327 24.1863H83.7731C83.4591 24.1863 83.2048 23.9303 83.2048 23.6143Z" fill="#2782F7"/>
<path d="M97.1212 24.5108C96.2627 24.5108 95.4778 24.3188 94.7703 23.9348C94.0609 23.5508 93.4985 22.9968 93.0792 22.2728C92.66 21.5488 92.4513 20.6728 92.4513 19.6468C92.4513 18.7288 92.6639 17.9428 93.0872 17.2888C93.5104 16.6348 94.0689 16.0888 94.7624 15.6508C95.4559 15.2128 96.2071 14.8668 97.0178 14.6128C97.8286 14.3588 98.6294 14.1728 99.4183 14.0528C100.009 13.9648 100.547 13.9028 101.032 13.8668C101.302 13.8468 101.495 13.6008 101.457 13.3308C101.362 12.6608 101.141 12.1548 100.795 11.8148C100.366 11.3928 99.6349 11.1828 98.6056 11.1828C97.8862 11.1828 97.1848 11.2828 96.5031 11.4828C95.9785 11.6368 95.4023 11.8548 94.7743 12.1408C94.4862 12.2708 94.1563 12.0828 94.1225 11.7688L93.8741 9.47084C93.8523 9.27284 93.9576 9.08084 94.1364 8.99684C95.0028 8.59284 95.8732 8.28284 96.7456 8.07084C97.7173 7.83284 98.7029 7.71484 99.7005 7.71484C100.903 7.71484 101.94 7.93084 102.808 8.36284C103.679 8.79484 104.349 9.48884 104.821 10.4468C105.294 11.4028 105.531 12.6648 105.531 14.2328V18.6088C105.531 19.4188 105.569 20.0048 105.644 20.3668C105.72 20.7288 105.859 20.9588 106.063 21.0549C106.268 21.1529 106.562 21.2008 106.95 21.2008C107.226 21.2008 107.439 21.4409 107.411 21.7169L107.156 24.0929C107.131 24.3289 106.932 24.5088 106.695 24.5088H105.662C105.06 24.5088 104.525 24.4308 104.058 24.2748C103.591 24.1188 103.192 23.8989 102.858 23.6189C102.667 23.4569 102.496 23.2788 102.347 23.0848C102.184 22.8728 101.876 22.8289 101.676 23.0069C101.203 23.4229 100.617 23.7589 99.9191 24.0169C99.0189 24.3449 98.0869 24.5108 97.1212 24.5108ZM98.7964 21.4309C99.1501 21.4309 99.5912 21.3368 100.118 21.1468C100.581 20.9808 101.002 20.7328 101.382 20.4028C101.481 20.3168 101.535 20.1869 101.535 20.0548V17.0689C101.535 16.7929 101.298 16.5768 101.024 16.6028C100.442 16.6608 99.8615 16.7728 99.2792 16.9388C98.5281 17.1548 97.9001 17.4748 97.3954 17.8948C96.8906 18.3168 96.6383 18.8468 96.6383 19.4828C96.6383 20.1428 96.8092 20.6308 97.153 20.9508C97.4967 21.2708 98.0452 21.4309 98.7964 21.4309Z" fill="#2782F7"/>
<path d="M109.627 23.6068V8.54484C109.627 8.22884 109.881 7.97284 110.195 7.97284H112.82C113.126 7.97284 113.376 8.21284 113.394 8.52084L113.498 10.4708C113.506 10.6288 113.307 10.7028 113.211 10.5768L112.685 9.88084C112.633 9.81284 112.643 9.71284 112.709 9.65884C113.295 9.17884 113.986 8.74084 114.781 8.34684C115.63 7.92484 116.617 7.71484 117.744 7.71484C119.807 7.71484 121.335 8.40284 122.335 9.78084C123.332 11.1588 123.833 12.9448 123.833 15.1388V23.6088C123.833 23.9268 123.577 24.1848 123.261 24.1848H120.411C120.095 24.1848 119.839 23.9268 119.839 23.6088V15.4648C119.839 13.9528 119.588 12.8328 119.09 12.1088C118.591 11.3848 117.776 11.0228 116.649 11.0228C115.737 11.0228 114.99 11.2468 114.41 11.6948C114.118 11.9208 113.841 12.1868 113.585 12.4888C113.468 12.6268 113.249 12.5008 113.313 12.3308C113.374 12.1648 113.621 12.2088 113.621 12.3868V23.6088C113.621 23.9268 113.364 24.1848 113.049 24.1848H110.199C109.883 24.1848 109.627 23.9268 109.627 23.6068Z" fill="#2782F7"/>
</g>
<defs>
<clipPath id="clip0">
<rect width="124" height="26" fill="white"/>
</clipPath>
</defs>
</svg>
